# xmcd
#
# Track frame offsets:
# 150
# 14829
# 31912
# 47674
# 62396
# 78444
# 96647
# 111992
# 128493
# 137261
# 156275
# 173652
# 188999
# 206005
# 219596
# 234400
# 246591
# 262055
# 278728
# 293687
#
# Disc length: 4074 seconds
#
#
# Revision: 0
# Processed by: cddbd v1.5.1PL0 Copyright (c) Steve Scherf et al.
# Submitted via: FreeRIP 2.942 
#
DISCID=250fe814
DTITLE=Vários Intérpretes - 
DYEAR=1900
DGENRE=Forró
TTITLE0=Esse Amor Não Tem Fim
TTITLE1=Destino
TTITLE2=Se Não For Por Amor
TTITLE3=Lambada Chamegar
TTITLE4=Amor da Minha Vida
TTITLE5=Cumbia do Amor
TTITLE6=Vivendo na Solidão
TTITLE7=Zouk do Jamaika
TTITLE8=Sempre Vou te Amar
TTITLE9=Ficar Por Ficar
TTITLE10=Sonho Lindo
TTITLE11=Minha Casa
TTITLE12=Xamegozar
TTITLE13=Treme Treme
TTITLE14=Libera o Toim
TTITLE15=Atração Fatal
TTITLE16=Frio da Solidão
TTITLE17=Chamo Por Você
TTITLE18=Você Errou and do Que Eu
TTITLE19=Cheiro do Pará
EXTD=
EXTT0=
EXTT1=
EXTT2=
EXTT3=
EXTT4=
EXTT5=
EXTT6=
EXTT7=
EXTT8=
EXTT9=
EXTT10=
EXTT11=
EXTT12=
EXTT13=
EXTT14=
EXTT15=
EXTT16=
EXTT17=
EXTT18=
EXTT19=
PLAYORDER=
